<?xml version="1.0" standalone="no"?>
<!DOCTYPE svg PUBLIC "-//W3C//DTD SVG 20010904//EN" "http://www.w3.org/TR/2001/REC-SVG-20010904/DTD/svg10.dtd">
<svg version="1.0" xmlns="http://www.w3.org/2000/svg" width="260.000000pt" height="260.000000pt" viewBox="0 0 260.000000 260.000000" preserveAspectRatio="xMidYMid meet">
    <g transform="translate(0.000000,260.000000) scale(0.100000,-0.100000)" fill="#000000" stroke="none">
        <path d="M1655 1942 c-93 -28 -144 -59 -216 -131 -118 -118 -169 -264 -169
        -483 0 -153 18 -239 71 -346 92 -187 254 -282 479 -282 160 0 268 40 365 135
        73 71 122 162 149 278 l7 28 -126 -3 -126 -3 -24 -59 c-45 -111 -115 -156
        -240 -156 -90 0 -128 14 -188 69 -86 79 -126 234 -107 413 23 224 122 340 290
        341 124 1 196 -40 242 -139 l30 -64 125 0 126 0 -7 43 c-10 64 -69 176 -123
        231 -99 100 -195 136 -373 142 -100 3 -137 0 -185 -14z"/>
        <path d="M310 1335 l0 -605 425 0 425 0 0 110 0 110 -300 0 -300 0 0 495 0
        495 -125 0 -125 0 0 -605z"/>
    </g>
</svg>
